<svg width="25" height="24" viewBox="0 0 25 24" fill="none" xmlns="http://www.w3.org/2000/svg">
<g clip-path="url(#clip0_1_688)">
<path d="M16.7853 0H16.956C17.093 1.69253 16.447 2.95719 15.6619 3.87301C14.8915 4.78251 13.8365 5.6646 12.1303 5.53076C12.0165 3.86247 12.6636 2.69161 13.4477 1.77789C14.1748 0.92636 15.508 0.168621 16.7853 0ZM21.9504 17.6167V17.6641C21.4708 19.1163 20.7869 20.361 19.9522 21.516C19.1903 22.5646 18.2565 23.9758 16.5893 23.9758C15.1486 23.9758 14.1917 23.0494 12.7152 23.0241C11.1534 22.9988 10.2945 23.7987 8.86645 24H8.37955C7.33094 23.8482 6.48468 23.0178 5.86816 22.2695C4.05022 20.0585 2.6454 17.2025 2.38403 13.5476V12.4737C2.49469 9.85799 3.76567 7.73126 5.45504 6.70057C6.34662 6.15255 7.57228 5.68568 8.93706 5.89435C9.52196 5.98498 10.1195 6.18522 10.6433 6.38335C11.1397 6.5741 11.7604 6.9124 12.3485 6.89448C12.7468 6.88289 13.1431 6.67527 13.5446 6.52878C14.7207 6.10407 15.8737 5.61718 17.3934 5.84587C19.2198 6.12199 20.516 6.93347 21.317 8.18548C19.772 9.16875 18.5505 10.6505 18.7592 13.1809C18.9447 15.4794 20.281 16.8241 21.9504 17.6167Z" fill="white"/>
</g>
<defs>
<clipPath id="clip0_1_688">
<rect width="24" height="24" fill="white" transform="translate(0.166687)"/>
</clipPath>
</defs>
</svg>
