<svg width="18" height="18" viewBox="0 0 18 18" fill="none" xmlns="http://www.w3.org/2000/svg">
<g clip-path="url(#clip0_1_887)">
<path d="M9 18C13.9706 18 18 13.9706 18 9C18 4.02944 13.9706 0 9 0C4.02944 0 0 4.02944 0 9C0 13.9706 4.02944 18 9 18Z" fill="#012169"/>
<path d="M15.9348 3.26459L8.99996 7.42559L2.06516 3.26459C1.48838 3.96205 1.02029 4.74266 0.676758 5.57999L6.37676 8.99999L0.676758 12.42C1.02003 13.2575 1.48791 14.0383 2.06456 14.736L8.99996 10.5744L15.9354 14.7354C16.512 14.0377 16.9799 13.2569 17.3232 12.4194L11.6232 8.99939L17.3232 5.57939C16.9796 4.74227 16.5115 3.96187 15.9348 3.26459Z" fill="white"/>
<path d="M1.79283 14.3742L9.87424 9.52499L16.7094 13.626C16.8644 13.3683 17.0064 13.1029 17.1348 12.831L9.87484 8.47499L16.7094 4.37459C16.5538 4.11619 16.3864 3.86659 16.2072 3.62579L8.12523 8.47499L1.29003 4.37459C1.13603 4.63139 0.994434 4.89619 0.865234 5.16899L8.12523 9.52499L1.29003 13.626C1.44503 13.8836 1.61284 14.1333 1.79283 14.3742Z" fill="#C8102E"/>
<path d="M11.25 0.295203C9.77582 -0.0984011 8.22418 -0.0984011 6.75 0.295203V6.75H0.295203C-0.0984011 8.22418 -0.0984011 9.77582 0.295203 11.25H6.75V17.7048C8.22418 18.0984 9.77582 18.0984 11.25 17.7048V11.25H17.7048C18.0984 9.77582 18.0984 8.22418 17.7048 6.75H11.25V0.295203Z" fill="white"/>
<path d="M10.35 0.1122C9.90345 0.0410108 9.45218 0.00350507 9 0C8.54782 0.00350507 8.09655 0.0410108 7.65 0.1122V7.65H0.1122C0.0410108 8.09655 0.00350507 8.54782 0 9C0.00350507 9.45218 0.0410108 9.90345 0.1122 10.35H7.65V17.8878C8.09655 17.959 8.54782 17.9965 9 18C9.45218 17.9965 9.90345 17.959 10.35 17.8878V10.35H17.8878C17.959 9.90345 17.9965 9.45218 18 9C17.9965 8.54782 17.959 8.09655 17.8878 7.65H10.35V0.1122Z" fill="#C8102E"/>
</g>
<defs>
<clipPath id="clip0_1_887">
<rect width="18" height="18" fill="white"/>
</clipPath>
</defs>
</svg>
