<svg width="25" height="24" viewBox="0 0 25 24" fill="none" xmlns="http://www.w3.org/2000/svg">
<g clip-path="url(#clip0_1_674)">
<path d="M6.15225 14.5035L5.31684 17.6222L2.26345 17.6868C1.35094 15.9943 0.833344 14.0578 0.833344 12C0.833344 10.0101 1.31728 8.13361 2.17509 6.48132H2.17575L4.89412 6.97969L6.08494 9.68175C5.8357 10.4084 5.69986 11.1884 5.69986 12C5.69995 12.8809 5.85952 13.7249 6.15225 14.5035Z" fill="#FBBB00"/>
<path d="M24.6237 9.75825C24.7615 10.4842 24.8334 11.2338 24.8334 12C24.8334 12.8591 24.743 13.6972 24.571 14.5055C23.9868 17.2563 22.4604 19.6582 20.3459 21.358L20.3453 21.3574L16.9213 21.1827L16.4367 18.1576C17.8398 17.3347 18.9363 16.047 19.5139 14.5055H13.0972V9.75825H24.6237Z" fill="#518EF8"/>
<path d="M20.3452 21.3574L20.3459 21.358C18.2894 23.011 15.6771 24 12.8333 24C8.26346 24 4.29029 21.4457 2.26346 17.6868L6.15225 14.5035C7.16565 17.2081 9.77466 19.1334 12.8333 19.1334C14.1481 19.1334 15.3797 18.778 16.4366 18.1576L20.3452 21.3574Z" fill="#28B446"/>
<path d="M20.4929 2.76262L16.6054 5.94525C15.5116 5.26153 14.2186 4.86656 12.8333 4.86656C9.70541 4.86656 7.0476 6.88017 6.08497 9.68175L2.17574 6.48131H2.17508C4.17224 2.63077 8.19552 0 12.8333 0C15.745 0 18.4146 1.03716 20.4929 2.76262Z" fill="#F14336"/>
</g>
<defs>
<clipPath id="clip0_1_674">
<rect width="24" height="24" fill="white" transform="translate(0.833344)"/>
</clipPath>
</defs>
</svg>
