<svg width="120" height="42" viewBox="0 0 120 42" fill="none" xmlns="http://www.w3.org/2000/svg">
<path d="M0 12.7941H7.84815V15.1027H5.19322V28.952H2.65421V15.1027H0V12.7941Z" fill="#FAAF40"/>
<path d="M9.46323 16.6717C9.46323 14.0866 10.8256 12.6097 13.3185 12.6097C15.8115 12.6097 17.1731 14.0866 17.1731 16.6717V25.0736C17.1731 27.6587 15.8115 29.1363 13.3185 29.1363C10.8256 29.1363 9.46323 27.6587 9.46323 25.0736V16.6717ZM12.0037 25.2356C12.0037 26.3878 12.512 26.8277 13.32 26.8277C14.1279 26.8277 14.6356 26.3892 14.6356 25.2356V16.5104C14.6356 15.3583 14.1272 14.9176 13.32 14.9176C12.5128 14.9176 12.0037 15.3561 12.0037 16.5104V25.2356Z" fill="#FAAF40"/>
<path d="M21.9509 12.7941V25.2587C21.9509 26.4108 22.4586 26.8277 23.2665 26.8277C24.0744 26.8277 24.5821 26.413 24.5821 25.2587V12.7941H26.9814V25.0967C26.9814 27.6825 25.6888 29.1594 23.1959 29.1594C20.703 29.1594 19.4105 27.6825 19.4105 25.0967V12.7941H21.9509Z" fill="#FAAF40"/>
<path d="M34.7383 28.9513C34.6 28.5358 34.5078 28.2823 34.5078 26.9667V24.4277C34.5078 22.9271 34.0038 22.3733 32.8459 22.3733H31.9688V28.9513H29.4298V12.7941H33.2614C35.8926 12.7941 37.0238 14.0182 37.0238 16.5104V17.7821C37.0238 19.444 36.4931 20.5285 35.3619 21.0599C36.6314 21.5906 37.0468 22.814 37.0468 24.499V26.9919C37.0468 27.7761 37.0699 28.3536 37.3234 28.9534L34.7383 28.9513ZM31.9688 15.1027V20.0655H32.9582C33.9051 20.0655 34.4819 19.6493 34.4819 18.3567V16.7639C34.4819 15.6118 34.0895 15.1027 33.1858 15.1027H31.9688Z" fill="#FAAF40"/>
<path d="M41.9632 12.7941H39.4242V28.9513H41.9632V12.7941Z" fill="#FAAF40"/>
<path d="M46.7879 17.2492V28.952H44.5024V12.7941H47.688L50.2962 22.4655V12.7941H52.5579V28.952H49.9498L46.7879 17.2492Z" fill="#FAAF40"/>
<path d="M58.9052 19.9495H62.4595V25.0736C62.4595 27.6587 61.1677 29.1363 58.6741 29.1363C56.1804 29.1363 54.8893 27.6587 54.8893 25.0736V16.6717C54.8893 14.0866 56.1855 12.609 58.6741 12.609C61.1627 12.609 62.4595 14.0866 62.4595 16.6717V18.2415H60.0595V16.5133C60.0595 15.3612 59.5554 14.9205 58.7439 14.9205C57.9324 14.9205 57.4276 15.359 57.4276 16.5133V25.2356C57.4276 26.3878 57.936 26.8047 58.7439 26.8047C59.5518 26.8047 60.0595 26.3892 60.0595 25.2356V22.2581H58.9074L58.9052 19.9495Z" fill="#FAAF40"/>
<path d="M90.5082 22.6948L101.843 6.4945C96.8236 -0.322917 87.0952 -1.52614 80.6053 3.5014C74.5336 8.20484 73.0216 17.0345 76.9204 23.4756C76.9298 23.491 76.94 23.5047 76.9494 23.5201L81.8042 17.4107L90.5082 22.6948Z" fill="#FAAF40"/>
<path d="M77.3829 24.6686C80.217 24.2282 82.3566 24.6054 83.5752 24.9252C84.2283 25.0958 84.8694 25.3095 85.4942 25.5649C86.8411 26.1284 87.9545 26.8613 89.4947 27.8738C91.0982 28.93 93.2942 30.376 96.7902 32.2822C97.2357 32.5242 97.541 32.6867 97.8164 32.8304L98.2764 33.075C102.74 35.4694 107.8 38.188 112.529 35.9971C113.613 35.4626 114.434 34.7408 114.83 33.9703C115.5 32.667 115.392 30.9165 114.561 29.6132C113.042 27.2324 109.355 27.0537 107.421 28.1261C106.968 28.3775 106.508 28.7546 105.956 29.2062C105.105 29.9045 104.317 30.6772 103.603 31.5151C103.359 30.6052 103.306 29.6547 103.445 28.723C103.976 25.3023 107.052 23.5501 107.605 23.2499C110.489 21.6875 113.335 22.3794 114.01 22.5658L105.167 3.49548L102.445 7.38565L90.7869 24.0375L82.0342 18.7269L77.3812 24.6686" fill="#D60B52"/>
<path d="M97.807 33.9617L97.3538 33.7206C97.0784 33.5752 96.7688 33.4119 96.3182 33.1656C92.7863 31.2406 90.5706 29.7817 88.9526 28.7187C86.7625 27.2769 85.5558 26.4824 83.3264 25.8966C81.8025 25.4981 79.9057 25.0038 77.6498 25.6401C75.4589 26.2567 73.9187 27.6848 72.8993 28.6332C71.9814 29.4849 71.1629 30.438 70.4595 31.474C71.6781 30.7956 72.9605 30.2387 74.2881 29.8116C75.6803 29.3652 77.4232 28.8059 79.3704 28.8059C80.3475 28.8029 81.319 28.9526 82.2498 29.2497C82.8795 29.4542 83.4862 29.7236 84.0602 30.0536C87.8229 32.1565 92.233 34.7972 94.5257 36.1852L94.6412 36.2553C96.0513 37.1053 103.375 41.3513 109.094 41.3513C112.042 41.3513 114.587 40.4157 116.876 38.4916C118.724 36.9446 119.762 34.5578 119.724 31.9384C119.687 29.1942 118.466 26.609 116.46 25.0235C113.875 22.9309 110.52 22.5709 108.105 24.1213C106.041 25.239 104.599 27.3761 104.27 29.6636C104.943 28.6239 105.881 27.7828 106.988 27.2273C109.651 25.93 113.665 26.3653 115.394 29.0753C116.413 30.6719 116.54 32.8286 115.71 34.4406C115.217 35.4018 114.237 36.2792 112.953 36.9129C107.766 39.316 102.475 36.4759 97.8079 33.9694" fill="#3EACB5"/>
</svg>
