<svg width="153" height="154" viewBox="0 0 153 154" fill="none" xmlns="http://www.w3.org/2000/svg">
<path d="M64.7697 57.4225L93.7728 15.9682C80.9299 -1.47656 56.0363 -4.55544 39.4297 8.30931C23.8931 20.3447 20.0242 42.9385 30.0005 59.4204C30.0246 59.4598 30.0508 59.4948 30.0749 59.5342L42.4976 43.9013L64.7697 57.4225Z" fill="#FAAF40"/>
<path d="M31.1845 62.4731C38.4364 61.3462 43.9114 62.3112 47.0297 63.1296C48.7009 63.5661 50.3413 64.1129 51.9402 64.7664C55.3867 66.2085 58.2358 68.0838 62.1768 70.6747C66.2798 73.3772 71.8992 77.0776 80.8448 81.9552C81.9849 82.5745 82.7661 82.9902 83.4707 83.3579L84.648 83.9837C96.0707 90.1108 109.019 97.0673 121.117 91.461C123.892 90.0933 125.993 88.2464 127.006 86.2748C128.722 82.9399 128.444 78.4605 126.317 75.1256C122.43 69.0335 112.997 68.5762 108.047 71.3203C106.889 71.9636 105.712 72.9286 104.299 74.084C102.121 75.871 100.106 77.8482 98.2786 79.9923C97.6545 77.6638 97.5167 75.2318 97.8738 72.8477C99.2327 64.0946 107.104 59.6109 108.52 58.8428C115.898 54.8449 123.181 56.6152 124.908 57.0922L102.279 8.29412L95.3136 18.2485L65.4833 60.8582L43.0865 47.2691L31.1802 62.4731" fill="#D60B52"/>
<path d="M83.4465 86.2528L82.2867 85.6357C81.5821 85.2637 80.7899 84.8458 79.6367 84.2156C70.5992 79.2898 64.9295 75.5566 60.7893 72.8366C55.1852 69.1472 52.0975 67.1144 46.3927 65.6154C42.4933 64.5957 37.6397 63.3309 31.8671 64.9589C26.2608 66.5367 22.3197 70.191 19.7113 72.6178C17.3624 74.7973 15.268 77.236 13.4683 79.8872C16.5863 78.1511 19.8677 76.7262 23.2651 75.6332C26.8276 74.491 31.2872 73.0598 36.2699 73.0598C38.77 73.0521 41.256 73.4353 43.6377 74.1955C45.2491 74.7187 46.8016 75.408 48.2703 76.2525C57.8986 81.6334 69.1834 88.3908 75.0501 91.9423L75.3456 92.1217C78.954 94.2969 97.6942 105.162 112.327 105.162C119.872 105.162 126.384 102.768 132.24 97.844C136.969 93.8855 139.626 87.7781 139.529 81.0754C139.433 74.0533 136.31 67.4382 131.177 63.3812C124.562 58.0265 115.977 57.1053 109.797 61.0726C104.517 63.9326 100.826 69.4011 99.9831 75.2547C101.705 72.5941 104.107 70.4418 106.94 69.0203C113.754 65.7007 124.025 66.8146 128.448 73.7491C131.056 77.8346 131.382 83.3534 129.258 87.4783C127.995 89.9379 125.489 92.183 122.203 93.8045C108.931 99.9535 95.3922 92.6863 83.4487 86.2725" fill="#3EACB5"/>
<path d="M0.226562 113.613H19.3943V119.252H12.9101V153.076H6.70903V119.252H0.226562V113.613Z" fill="#FAAF40"/>
<path d="M23.3391 123.084C23.3391 116.77 26.6665 113.163 32.7551 113.163C38.8436 113.163 42.1692 116.77 42.1692 123.084V143.604C42.1692 149.918 38.8436 153.527 32.7551 153.527C26.6665 153.527 23.3391 149.918 23.3391 143.604V123.084ZM29.5437 144C29.5437 146.814 30.7853 147.888 32.7586 147.888C34.7318 147.888 35.9717 146.817 35.9717 144V122.69C35.9717 119.876 34.7301 118.8 32.7586 118.8C30.7871 118.8 29.5437 119.871 29.5437 122.69V144Z" fill="#FAAF40"/>
<path d="M53.8379 113.613V144.056C53.8379 146.87 55.0778 147.888 57.051 147.888C59.0242 147.888 60.2641 146.875 60.2641 144.056V113.613H66.124V143.66C66.124 149.976 62.9672 153.583 56.8786 153.583C50.7901 153.583 47.6333 149.976 47.6333 143.66V113.613H53.8379Z" fill="#FAAF40"/>
<path d="M85.0687 153.075C84.731 152.06 84.5059 151.441 84.5059 148.228V142.027C84.5059 138.362 83.2749 137.009 80.4469 137.009H78.3048V153.075H72.1038V113.613H81.4617C87.8879 113.613 90.6507 116.603 90.6507 122.69V125.796C90.6507 129.855 89.3546 132.503 86.5917 133.801C89.6923 135.097 90.707 138.085 90.707 142.201V148.289C90.707 150.204 90.7633 151.615 91.3823 153.08L85.0687 153.075ZM78.3048 119.252V131.373H80.7213C83.0339 131.373 84.4426 130.356 84.4426 127.199V123.309C84.4426 120.495 83.4841 119.252 81.277 119.252H78.3048Z" fill="#FAAF40"/>
<path d="M102.715 113.613H96.5135V153.075H102.715V113.613Z" fill="#FAAF40"/>
<path d="M114.498 124.494V153.076H108.916V113.613H116.697L123.066 137.234V113.613H128.59V153.076H122.221L114.498 124.494Z" fill="#FAAF40"/>
<path d="M144.093 131.089H152.774V143.604C152.774 149.918 149.619 153.527 143.528 153.527C137.438 153.527 134.285 149.918 134.285 143.604V123.084C134.285 116.77 137.45 113.162 143.528 113.162C149.606 113.162 152.774 116.77 152.774 123.084V126.918H146.912V122.697C146.912 119.883 145.681 118.807 143.699 118.807C141.717 118.807 140.484 119.878 140.484 122.697V144C140.484 146.814 141.726 147.832 143.699 147.832C145.672 147.832 146.912 146.817 146.912 144V136.728H144.098L144.093 131.089Z" fill="#FAAF40"/>
</svg>
